<?xml version="1.0" encoding="UTF-8" standalone="no"?>
<svg
   xmlns:dc="http://purl.org/dc/elements/1.1/"
   xmlns:cc="http://creativecommons.org/ns#"
   xmlns:rdf="http://www.w3.org/1999/02/22-rdf-syntax-ns#"
   xmlns:svg="http://www.w3.org/2000/svg"
   xmlns="http://www.w3.org/2000/svg"
   xmlns:xlink="http://www.w3.org/1999/xlink"
   xmlns:sodipodi="http://sodipodi.sourceforge.net/DTD/sodipodi-0.dtd"
   xmlns:inkscape="http://www.inkscape.org/namespaces/inkscape"
   viewBox="0 0 700 700"
   version="1.1"
   id="svg14"
   sodipodi:docname="apple-tv-logo.svg"
   width="700"
   height="700"
   inkscape:export-filename="C:\Users\suitedoalex\sites\apple-tv+-logo-0.png"
   inkscape:export-xdpi="561.73999"
   inkscape:export-ydpi="561.73999"
   inkscape:version="0.92.0 r15299">
  <metadata
     id="metadata18">
    <rdf:RDF>
      <cc:Work
         rdf:about="">
        <dc:format>image/svg+xml</dc:format>
        <dc:type
           rdf:resource="http://purl.org/dc/dcmitype/StillImage" />
        <dc:title>apple_tv_app_large_</dc:title>
      </cc:Work>
    </rdf:RDF>
  </metadata>
  <sodipodi:namedview
     pagecolor="#ffffff"
     bordercolor="#666666"
     borderopacity="1"
     objecttolerance="10"
     gridtolerance="10"
     guidetolerance="10"
     inkscape:pageopacity="0"
     inkscape:pageshadow="2"
     inkscape:window-width="1920"
     inkscape:window-height="1017"
     id="namedview16"
     showgrid="false"
     inkscape:zoom="0.27314815"
     inkscape:cx="912.46011"
     inkscape:cy="253.62032"
     inkscape:window-x="-8"
     inkscape:window-y="-8"
     inkscape:window-maximized="1"
     inkscape:current-layer="g12" />
  <defs
     id="defs4">
    <linearGradient
       inkscape:collect="always"
       id="linearGradient4551">
      <stop
         style="stop-color:#1d1d1f;stop-opacity:1;"
         offset="0"
         id="stop4547" />
      <stop
         style="stop-color:#313131;stop-opacity:1"
         offset="1"
         id="stop4549" />
    </linearGradient>
    <style
       id="style2">
      .a {
        fill: none;
      }

      .b {
        fill: #1d1d1f;
      }
    </style>
    <linearGradient
       inkscape:collect="always"
       xlink:href="#linearGradient4551"
       id="linearGradient4553"
       x1="337.03482"
       y1="327.08386"
       x2="338.64404"
       y2="125.38983"
       gradientUnits="userSpaceOnUse"
       gradientTransform="matrix(1.5023487,0,0,1.5023487,-173.05773,-114.16906)" />
  </defs>
  <title
     id="title6">apple_tv_app_large_</title>
  <g
     id="g12"
     transform="translate(0,646)">
    <rect
       style="fill:#ffffff;fill-rule:evenodd;stroke-width:1.50234866"
       id="rect4495"
       width="567.81952"
       height="394.75125"
       x="48.625244"
       y="210.0312"
       rx="55.001286"
       ry="55.001286"
       inkscape:export-filename="C:\Users\suitedoalex\sites\apple-tv+-logo-4.png"
       inkscape:export-xdpi="92.573883"
       inkscape:export-ydpi="92.573883" />
    <path
       class="b"
       d="m 678.27086,288.15419 c 0,-8.23652 0,-16.47303 0,-24.70954 0,-6.94282 -0.12935,-13.88563 -0.30186,-20.80689 a 302.59478,302.59478 0 0 0 -3.98889,-45.27926 152.87138,152.87138 0 0 0 -14.18749,-43.12309 144.89361,144.89361 0 0 0 -63.45565,-63.326275 152.95762,152.95762 0 0 0 -43.1231,-14.18749 302.5732,302.5732 0 0 0 -45.27924,-3.988886 c -6.94282,-0.194058 -13.88564,-0.280308 -20.82846,-0.301867 -8.2365,0 -16.47302,0 -24.73109,0 h -258.2858 c -8.2365,0 -16.47303,0 -24.70953,0 -6.94282,0 -13.88564,0.129352 -20.8069,0.301867 a 302.5732,302.5732 0 0 0 -45.27924,3.988886 152.87138,152.87138 0 0 0 -43.123098,14.18749 144.89361,144.89361 0 0 0 -63.3262648,63.390955 152.95762,152.95762 0 0 0 -14.1875049,43.1231 302.55165,302.55165 0 0 0 -3.9888863,45.27926 c -0.194043,6.94282 -0.280293,13.88563 -0.301852,20.82845 0,8.23651 0,16.47302 0,24.7311 v 284.18121 c 0,6.46847 0.129352,13.0663 0.301852,19.62102 a 302.55165,302.55165 0 0 0 3.9457689,45.21456 152.87138,152.87138 0 0 0 14.1875049,43.12309 144.89361,144.89361 0 0 0 63.4340732,63.32626 153.087,153.087 0 0 0 43.123087,14.18751 302.55165,302.55165 0 0 0 45.27925,3.98889 c 6.94282,0.19405 13.88564,0.28029 20.82846,0.30185 8.2365,0 16.47303,0 24.73109,0 H 462.5907 c 8.2365,0 16.47301,0 24.70953,0 6.94282,0 13.88564,-0.12935 20.80688,-0.30185 a 302.55165,302.55165 0 0 0 45.27926,-3.98889 152.87138,152.87138 0 0 0 43.1231,-14.18751 144.89361,144.89361 0 0 0 63.21846,-63.32626 153.087,153.087 0 0 0 14.1875,-43.12309 302.5732,302.5732 0 0 0 3.98889,-45.27925 c 0.19404,-6.94282 0.28029,-13.88564 0.30185,-20.82846 0,-8.23652 0,-16.47303 0,-24.73109 z m -477.39425,8.06402 a 55.434742,55.434742 0 0 1 36.65464,-19.01729 55.887535,55.887535 0 0 1 -12.93694,39.84575 46.271083,46.271083 0 0 1 -37.06429,17.46485 52.35144,52.35144 0 0 1 13.34659,-38.29331 z m 71.41185,198.75436 c -10.39266,15.28713 -21.08719,30.18617 -38.1855,30.57427 -16.49458,0.30186 -21.99277,-9.78895 -40.96694,-9.78895 -18.97417,0 -25.05452,9.48708 -40.64352,10.09081 -16.49458,0.60372 -29.02184,-16.21429 -39.39295,-31.47986 C 91.710497,463.4927 75.517777,407.26018 97.510554,369.31186 a 60.372335,60.372335 0 0 1 51.316486,-31.178 c 16.19272,-0.30187 31.15643,10.78076 40.96694,10.78076 9.81051,0 27.1891,-12.93692 47.65102,-11.62167 a 58.539604,58.539604 0 0 1 45.51643,24.75267 56.577503,56.577503 0 0 0 -26.88725,47.43541 55.499425,55.499425 0 0 0 33.29103,50.43246 135.83776,135.83776 0 0 1 -17.07675,35.05908 z m 128.9165,-117.76919 h -33.4204 v 97.65226 c 0,15.09308 6.64096,22.07903 21.25969,22.07903 a 111.60258,111.60258 0 0 0 11.96666,-0.84091 v 27.57723 a 115.07399,115.07399 0 0 1 -19.77194,1.48775 c -34.49848,0 -47.95288,-13.23881 -47.95288,-46.78857 V 377.22494 h -25.57201 v -27.40473 h 25.57201 v -41.52753 h 34.49847 v 41.52753 h 33.4204 z M 518.047,523.82192 H 481.39237 L 419.72633,349.82021 h 36.46058 l 43.25246,139.82665 h 0.81934 l 43.25247,-139.82665 h 35.8353 z"
       id="path10"
       inkscape:connector-curvature="0"
       style="fill:url(#linearGradient4553);fill-opacity:1;stroke-width:21.56154823"
       inkscape:export-filename="C:\Users\suitedoalex\sites\apple-tv+-logo-4.png"
       inkscape:export-xdpi="92.573883"
       inkscape:export-ydpi="92.573883" />
    <path
       inkscape:connector-curvature="0"
       class="a"
       d="m 178.73402,-371.94949 a 50.476263,50.476263 0 0 0 11.51648,-35.88435 49.324615,49.324615 0 0 0 -32.84817,17.15696 47.400836,47.400836 0 0 0 -11.77823,34.4317 41.066767,41.066767 0 0 0 33.10992,-15.70431 m 10.73129,18.07304 c -18.32171,-1.06003 -33.76428,10.46954 -42.53252,10.46954 -8.76823,0 -22.1169,-9.89371 -36.51251,-9.63196 a 53.878865,53.878865 0 0 0 -45.804247,28.09762 c -19.630372,34.02601 -5.234768,84.71165 13.872155,112.41667 9.291706,13.16544 20.415595,28.85666 35.203822,28.34629 14.78822,-0.51039 19.36865,-9.16085 36.25078,-9.16085 16.88214,0 21.85515,9.16085 36.51252,8.83367 14.65734,-0.32719 24.86514,-13.19163 34.02598,-27.48255 a 121.93087,121.93087 0 0 0 15.31171,-31.67036 49.913526,49.913526 0 0 1 -29.70731,-45.38545 51.039003,51.039003 0 0 1 23.94908,-42.61102 52.229914,52.229914 0 0 0 -40.56946,-22.24778 m 116.86621,-26.38323 v 37.36316 h 29.83819 v 24.66887 h -29.83819 v 88.40216 c 0,13.19162 5.88913,19.9183 18.97604,19.9183 a 97.916366,97.916366 0 0 0 10.73128,-0.78522 v 24.86516 a 102.379,102.379 0 0 1 -17.66734,1.3087 c -30.88515,0 -42.79425,-12.00072 -42.79425,-42.08756 v -91.03263 h -23.42558 v -24.73429 h 22.77123 v -37.86047 z m 134.14097,194.38008 h -32.71731 l -54.96507,-156.49343 h 32.58643 l 38.60643,125.73916 h 0.78522 l 38.60642,-125.73916 h 31.93209 z m 143.69441,0 h -28.26775 v -64.12592 h -60.72331 v -28.24159 h 60.59245 v -64.12592 h 28.26775 v 64.12592 h 60.72332 v 28.24159 H 584.1669 Z"
       id="path8-2"
       style="fill:#000000;stroke-width:13.08692455"
       inkscape:export-filename="C:\Users\suitedoalex\sites\apple-tv+-logo-5.png"
       inkscape:export-xdpi="113.9913"
       inkscape:export-ydpi="113.9913" />
  </g>
</svg>
